<?xml version="1.0" encoding="UTF-8" standalone="no"?>
<svg
   xmlns:dc="http://purl.org/dc/elements/1.1/"
   xmlns:cc="http://creativecommons.org/ns#"
   xmlns:rdf="http://www.w3.org/1999/02/22-rdf-syntax-ns#"
   xmlns:svg="http://www.w3.org/2000/svg"
   xmlns="http://www.w3.org/2000/svg"
   xmlns:sodipodi="http://sodipodi.sourceforge.net/DTD/sodipodi-0.dtd"
   xmlns:inkscape="http://www.inkscape.org/namespaces/inkscape"
   viewBox="0 0 16 16"
   version="1.1"
   id="svg22"
   sodipodi:docname="ExtractText.svg"
   inkscape:version="1.0.1 (3bc2e813f5, 2020-09-07)">
  <metadata
     id="metadata26">
    <rdf:RDF>
      <cc:Work
         rdf:about="">
        <dc:format>image/svg+xml</dc:format>
        <dc:type
           rdf:resource="http://purl.org/dc/dcmitype/StillImage" />
      </cc:Work>
    </rdf:RDF>
  </metadata>
  <sodipodi:namedview
     pagecolor="#ffffff"
     bordercolor="#666666"
     borderopacity="1"
     objecttolerance="10"
     gridtolerance="10"
     guidetolerance="10"
     inkscape:pageopacity="0"
     inkscape:pageshadow="2"
     inkscape:window-width="1920"
     inkscape:window-height="1051"
     id="namedview24"
     showgrid="false"
     inkscape:zoom="55"
     inkscape:cx="7.1319808"
     inkscape:cy="5.9043505"
     inkscape:window-x="-9"
     inkscape:window-y="-9"
     inkscape:window-maximized="1"
     inkscape:current-layer="svg22" />
  <defs
     id="defs4">
    <style
       id="style2">.canvas{fill: none; opacity: 0;}.light-blue{fill: #005dba; opacity: 1;}.light-defaultgrey-10{fill: #212121; opacity: 0.1;}.light-defaultgrey{fill: #212121; opacity: 1;}.cls-1{opacity:0.75;}</style>
  </defs>
  <title
     id="title6">ResultsToTextFile</title>
  <g
     id="canvas">
    <path
       class="canvas"
       d="M16,16H0V0H16Z"
       id="path8" />
  </g>
  <g
     class="cls-1"
     id="g17">
    <path
       class="light-defaultgrey-10"
       d="M 10.5,1.5 H 6.62 L 6.85,1.73 V 3.27 L 5.12,5 4.12,6 3.85,6.27 2.5,4.92 v 9.58 h 11 v -10 z"
       id="path13" />
    <path
       id="path15"
       d="M 6.1191406 1 L 6.8496094 1.7304688 L 6.8496094 2 L 10 2 L 10 5 L 13 5 L 13 14 L 3 14 L 3 6.4179688 L 2 6.4179688 L 2 14.5 L 2.5 15 L 13.5 15 L 14 14.5 L 14 4.5 L 13.849609 4.1503906 L 10.849609 1.1503906 L 10.5 1 L 6.1191406 1 z " />
  </g>
  <path
     class="light-defaultgrey"
     d="m 5.12,5 -1,1 H 9 V 5 Z M 4,11 v 1 h 8 V 11 Z M 4,8 v 1 h 8 V 8 Z"
     id="path19" />
  <path
     class="light-blue"
     d="M 0.2044107,4.0326183 A 1.8598818,1.8598818 0 0 1 2.0642926,2.1727364 h 3.58734 L 4.4032799,0.92438366 4.9292545,0.39840908 6.7891364,2.258291 V 2.7842656 L 4.9292545,4.6441475 4.4032799,4.1181729 5.6040196,2.9166892 h -3.539727 a 1.1159291,1.1159291 0 0 0 0,2.2318582 h 1.115929 V 5.8925001 H 2.0642926 A 1.8598818,1.8598818 0 0 1 0.2044107,4.0326183 Z"
     id="path75"
     style="opacity:1;fill:#005dba;stroke-width:0.743953" />
</svg>
