<svg xmlns="http://www.w3.org/2000/svg" viewBox="0 0 16 16">
  <defs>
    <style>.canvas{fill: none; opacity: 0;}.light-defaultgrey-10{fill: #212121; opacity: 0.1;}.light-defaultgrey{fill: #212121; opacity: 1;}</style>
  </defs>
  <title>IconLightPackage</title>
  <g id="canvas">
    <path class="canvas" d="M16,16H0V0H16Z" />
  </g>
  <g id="level-1">
    <path class="light-defaultgrey-10" d="M2.5,5.5h11v9H2.5Z" />
    <path class="light-defaultgrey" d="M11.9,5a1.816,1.816,0,0,0,.432-.878,1.913,1.913,0,0,0-1.563-2.2C9.588,1.722,9,2.575,8.612,3.342c-.076.151-.295.641-.526,1.16L8,4.685l-.1-.217Q7.657,3.9,7.4,3.342c-.386-.767-.971-1.62-2.157-1.423a1.91,1.91,0,0,0-1.564,2.2A1.816,1.816,0,0,0,4.106,5H2.5L2,5.5v9l.5.5h11l.5-.5v-9L13.5,5ZM9.506,3.791c.458-.913.764-.942,1.1-.885a.91.91,0,0,1,.744,1.049,1.071,1.071,0,0,1-.516.68A7.276,7.276,0,0,1,10.187,5H8.958L9,4.91C9.222,4.409,9.432,3.937,9.506,3.791Zm-4.33.843a1.07,1.07,0,0,1-.515-.679A.908.908,0,0,1,5.4,2.906h0c.33-.057.638-.026,1.095.886.072.143.274.6.492,1.085L7.048,5H5.819A7.287,7.287,0,0,1,5.176,4.634ZM7.5,14H3V6H7.5ZM13,14H8.5V6H13Z" />
  </g>
</svg>
