<svg xmlns="http://www.w3.org/2000/svg" viewBox="0 0 16 16">
  <defs>
    <style>.canvas{fill: none; opacity: 0;}.light-purple-10{fill: #6936aa; opacity: 0.1;}.light-purple{fill: #6936aa; opacity: 1;}</style>
  </defs>
  <title>FSScript</title>
  <g id="canvas" class="canvas">
    <path class="canvas" d="M16,16H0V0H16Z" />
  </g>
  <g id="level-1">
    <path class="light-purple-10" d="M8,12a1.984,1.984,0,0,0,.269,1H4a1,1,0,0,1-1-1ZM5,5v6H8.5l.5.5V12a1,1,0,0,0,2,0V5a1.978,1.978,0,0,1,.278-1H6A1,1,0,0,0,5,5Zm8-1a1,1,0,0,0-1,1V6h2V5A1,1,0,0,0,13,4Z" />
    <path class="light-purple" d="M13,3H6A2,2,0,0,0,4,5v6H2.5l-.5.5V12a2.023,2.023,0,0,0,1.993,2H10a2,2,0,0,0,2-2V7h2.5l.5-.5V5A2,2,0,0,0,13,3ZM4,13a1,1,0,0,1-1-1H8a1.984,1.984,0,0,0,.269,1Zm7-8v7a1,1,0,0,1-2,0v-.5L8.5,11H5V5A1,1,0,0,1,6,4h5.278A1.978,1.978,0,0,0,11,5Zm3,1H12V5a1,1,0,0,1,2,0Z" />
  </g>
</svg>
