<?xml version="1.0" encoding="UTF-8" standalone="no"?>
<svg
   xmlns:dc="http://purl.org/dc/elements/1.1/"
   xmlns:cc="http://creativecommons.org/ns#"
   xmlns:rdf="http://www.w3.org/1999/02/22-rdf-syntax-ns#"
   xmlns:svg="http://www.w3.org/2000/svg"
   xmlns="http://www.w3.org/2000/svg"
   xmlns:sodipodi="http://sodipodi.sourceforge.net/DTD/sodipodi-0.dtd"
   xmlns:inkscape="http://www.inkscape.org/namespaces/inkscape"
   viewBox="0 0 16 16"
   version="1.1"
   id="svg20"
   sodipodi:docname="ExtractFile.svg"
   inkscape:version="1.0.1 (3bc2e813f5, 2020-09-07)">
  <metadata
     id="metadata24">
    <rdf:RDF>
      <cc:Work
         rdf:about="">
        <dc:format>image/svg+xml</dc:format>
        <dc:type
           rdf:resource="http://purl.org/dc/dcmitype/StillImage" />
        <dc:title>IconLightOpenFile</dc:title>
      </cc:Work>
    </rdf:RDF>
  </metadata>
  <sodipodi:namedview
     pagecolor="#ffffff"
     bordercolor="#666666"
     borderopacity="1"
     objecttolerance="10"
     gridtolerance="10"
     guidetolerance="10"
     inkscape:pageopacity="0"
     inkscape:pageshadow="2"
     inkscape:window-width="1920"
     inkscape:window-height="1051"
     id="namedview22"
     showgrid="false"
     inkscape:zoom="55"
     inkscape:cx="8"
     inkscape:cy="3.6363636"
     inkscape:window-x="-9"
     inkscape:window-y="-9"
     inkscape:window-maximized="1"
     inkscape:current-layer="svg20" />
  <defs
     id="defs4">
    <style
       id="style2">.canvas{fill: none; opacity: 0;}.light-defaultgrey-10{fill: #212121; opacity: 0.1;}.light-defaultgrey{fill: #212121; opacity: 1;}.light-blue{fill: #005dba; opacity: 1;}.cls-1{opacity:0.75;}</style>
  </defs>
  <title
     id="title6">IconLightOpenFile</title>
  <g
     id="canvas"
     class="canvas">
    <path
       class="canvas"
       d="M16,16H0V0H16Z"
       id="path8" />
  </g>
  <g
     class="cls-1"
     id="g15">
    <path
       class="light-defaultgrey-10"
       d="m 13.5,5.5 v 9 H 3.5 V 5.914 l 0.354,0.354 3,-3 V 2 l 1,0.5 H 10.5 Z"
       id="path11" />
    <path
       class="light-defaultgrey"
       d="m 14,5.5 v 9 L 13.5,15 H 3.5 L 3,14.5 V 5.414 L 3.854,6.268 4,6.122 V 14 h 9 V 6 H 10 V 3 H 6.854 V 2 H 10.5 l 0.354,0.146 3,3 z"
       id="path13" />
  </g>
  <path
     class="light-blue"
     d="M 0.1901478,4.0682027 A 1.7656197,1.7656197 0 0 1 1.9557675,2.302583 H 5.3612948 L 4.1762108,1.117499 4.6755281,0.61818182 6.4411478,2.3838015 V 2.8831188 L 4.6755281,4.6487385 4.1762108,4.1494212 5.3160949,3.0088309 H 1.9557675 a 1.0593718,1.0593718 0 0 0 0,2.1187436 H 3.0151393 V 5.8338224 H 1.9557675 A 1.7656197,1.7656197 0 0 1 0.1901478,4.0682027 Z"
     id="path21"
     style="opacity:1;fill:#005dba;stroke-width:0.706248" />
</svg>
