<svg xmlns="http://www.w3.org/2000/svg" viewBox="0 0 16 16">
  <defs>
    <style>.canvas{fill: none; opacity: 0;}.light-defaultgrey-10{fill: #212121; opacity: 0.1;}.light-defaultgrey{fill: #212121; opacity: 1;}.light-yellow-10{fill: #996f00; opacity: 0.1;}.light-yellow{fill: #996f00; opacity: 1;}.light-blue{fill: #005dba; opacity: 1;}</style>
  </defs>
  <title>IconLightConvertBranchToFolder</title>
  <g id="canvas">
    <path class="canvas" d="M16,16H0V0H16Z" />
  </g>
  <g id="level-1">
    <path class="light-defaultgrey-10" d="M7.5,6.5h-6v-5h6Z" />
    <path class="light-defaultgrey" d="M7.5,7h-6L1,6.5v-5L1.5,1h6l.5.5v5ZM2,6H7V2H2Z" />
    <path class="light-yellow-10" d="M14.5,10.5v4h-6v-5h2.25l1,1Z" />
    <path class="light-yellow" d="M14.5,10H11.957L11.1,9.146,10.75,9H8.5L8,9.5v5l.5.5h6l.5-.5v-4ZM14,14H9V10h1.543l.853.854L11.75,11H14Z" />
    <path class="light-blue" d="M3,8v3H5.293L4.146,9.854l.708-.708,2,2v.708l-2,2-.708-.708L5.293,12H2.5L2,11.5V8Z" />
  </g>
</svg>
