<?xml version="1.0" encoding="UTF-8" standalone="no"?>
<svg
   xmlns:dc="http://purl.org/dc/elements/1.1/"
   xmlns:cc="http://creativecommons.org/ns#"
   xmlns:rdf="http://www.w3.org/1999/02/22-rdf-syntax-ns#"
   xmlns:svg="http://www.w3.org/2000/svg"
   xmlns="http://www.w3.org/2000/svg"
   xmlns:sodipodi="http://sodipodi.sourceforge.net/DTD/sodipodi-0.dtd"
   xmlns:inkscape="http://www.inkscape.org/namespaces/inkscape"
   viewBox="0 0 16 16"
   version="1.1"
   id="svg22"
   sodipodi:docname="ExtractImage.svg"
   inkscape:version="1.0.1 (3bc2e813f5, 2020-09-07)">
  <metadata
     id="metadata26">
    <rdf:RDF>
      <cc:Work
         rdf:about="">
        <dc:format>image/svg+xml</dc:format>
        <dc:type
           rdf:resource="http://purl.org/dc/dcmitype/StillImage" />
        <dc:title>IconLightRestoreImage</dc:title>
      </cc:Work>
    </rdf:RDF>
  </metadata>
  <sodipodi:namedview
     pagecolor="#ffffff"
     bordercolor="#666666"
     borderopacity="1"
     objecttolerance="10"
     gridtolerance="10"
     guidetolerance="10"
     inkscape:pageopacity="0"
     inkscape:pageshadow="2"
     inkscape:window-width="1920"
     inkscape:window-height="1051"
     id="namedview24"
     showgrid="false"
     inkscape:zoom="55"
     inkscape:cx="8"
     inkscape:cy="5.0909091"
     inkscape:window-x="-9"
     inkscape:window-y="-9"
     inkscape:window-maximized="1"
     inkscape:current-layer="svg22" />
  <defs
     id="defs4">
    <style
       id="style2">.canvas{fill: none; opacity: 0;}.light-defaultgrey-10{fill: #212121; opacity: 0.1;}.light-yellow{fill: #996f00; opacity: 1;}.light-defaultgrey{fill: #212121; opacity: 1;}.light-blue{fill: #005dba; opacity: 1;}</style>
  </defs>
  <title
     id="title6">IconLightRestoreImage</title>
  <g
     id="canvas">
    <path
       class="canvas"
       d="M16,0V16H0V0Z"
       id="path8" />
  </g>
  <path
     class="light-defaultgrey-10"
     d="m 14.5,6.5 v 8 H 4.5 V 10.257 L 7.964,6.783 C 8.042,6.695 8.101,6.594 8.17,6.5 Z"
     id="path11" />
  <path
     class="light-yellow"
     d="M 13,9 A 1,1 0 1 1 12,8 1,1 0 0 1 13,9 Z"
     id="path13" />
  <path
     class="light-defaultgrey"
     d="m 15,6.5 v 8 L 14.5,15 H 4.5 L 4,14.5 v -3.742 l 1,-1 V 14 h 9 V 7 H 7.748 L 7.964,6.783 A 4.076,4.076 0 0 0 8.495,6 H 14.5 Z"
     id="path15" />
  <path
     class="light-blue"
     d="M 14,14 H 12.793 L 10.98,12.188 9.34,13.827 H 8.633 L 5.986,11.181 5,12.167 V 10.753 L 5.633,10.12 H 6.34 l 2.646,2.647 1.641,-1.64 h 0.707 L 14,13.793 Z"
     id="path19" />
  <path
     class="light-blue"
     d="m 0.0654091,7.1925 a 2.5,2.5 0 0 1 2.5,-2.5 H 7.387409 l -1.678,-1.678 0.707,-0.707 2.5,2.5 v 0.707 l -2.5,2.5 -0.707,-0.707 1.614,-1.615 H 2.5654091 a 1.5,1.5 0 0 0 0,3 h 1.5 v 1 h -1.5 a 2.5,2.5 0 0 1 -2.5,-2.5 z"
     id="path75"
     style="opacity:1;fill:#005dba" />
</svg>
