<svg xmlns="http://www.w3.org/2000/svg" viewBox="0 0 16 16">
  <defs>
    <style>.canvas{fill: none; opacity: 0;}.light-defaultgrey-10{fill: #212121; opacity: 0.1;}.light-defaultgrey{fill: #212121; opacity: 1;}.light-blue-10{fill: #005dba; opacity: 0.1;}.light-blue{fill: #005dba; opacity: 1;}.cls-1{opacity:0.75;}</style>
  </defs>
  <title>IconLightFindInFile</title>
  <g id="canvas">
    <path class="canvas" d="M16,16H0V0H16Z" />
  </g>
  <g id="level-1">
    <g class="cls-1">
      <path class="light-defaultgrey-10" d="M13.5,4.5v10H4.664l-.51.5H2V12.91l.5-.489V1.5h8Z" />
      <path class="light-defaultgrey" d="M14,4.5v10l-.5.5H4.154l1.02-1H13V5H10V2H3v9.931L2,12.91V1.5L2.5,1h8l.354.146,3,3Z" />
    </g>
    <path class="light-blue-10" d="M7,12.5A2.5,2.5,0,1,1,9.5,10,2.5,2.5,0,0,1,7,12.5Z" />
    <path class="light-blue" d="M1.85,15.857l3.455-3.385a3.078,3.078,0,1,0-.713-.7L1.15,15.143ZM7,12a2,2,0,1,1,2-2A2,2,0,0,1,7,12Z" />
  </g>
</svg>
